<?xml version="1.0" encoding="utf-8"?>
<!-- Generator: Adobe Illustrator 25.4.1, SVG Export Plug-In . SVG Version: 6.00 Build 0)  -->
<svg version="1.1" id="Capa_1" xmlns="http://www.w3.org/2000/svg" xmlns:xlink="http://www.w3.org/1999/xlink" x="0px" y="0px"
	 viewBox="0 0 900 312.43" style="enable-background:new 0 0 900 312.43;" xml:space="preserve">
<style type="text/css">
	.st0{fill:none;stroke:#448AFF;stroke-width:25;stroke-miterlimit:10;}
	.st1{fill:#FFFFFF;stroke:#448AFF;stroke-width:20;stroke-miterlimit:10;}
	.st2{fill:#5683C2;stroke:#448AFF;stroke-width:20;stroke-miterlimit:10;}
	.st3{fill:#FFFFFF;stroke:#FFFFFF;stroke-miterlimit:10;}
	.st4{fill:#FFFFFF;}
</style>
<circle class="st0" cx="220.9" cy="88.38" r="54.74"/>
<rect x="133.19" y="147.52" transform="matrix(0.7756 0.6312 -0.6312 0.7756 149.7293 -44.3981)" class="st1" width="8.24" height="81.77"/>
<circle class="st2" cx="109.39" cy="222.72" r="6.14"/>
<g>
	<path class="st3" d="M125.38,43.97c11.33,10.37,17,24.79,17,43.27c0,18.47-5.52,33.09-16.57,43.86
		c-11.05,10.77-27.91,16.15-50.58,16.15H34.6V28.42h41.99C97.78,28.42,114.05,33.6,125.38,43.97z M105.92,114.61
		c6.52-6.12,9.77-15.02,9.77-26.69c0-11.67-3.26-20.65-9.77-26.94c-6.52-6.29-16.52-9.44-30-9.44H61.12v72.25h16.83
		C90.08,123.79,99.4,120.73,105.92,114.61z"/>
</g>
<g>
	<path class="st3" d="M402.66,72.45l-32.13,64.94h-15.81l-31.96-64.94v74.8h-26.52V28.42h35.87l30.6,65.28l30.77-65.28h35.7v118.83
		h-26.52V72.45z"/>
</g>
<g>
	<path class="st3" d="M199.25,192.88c-2.55,2.1-3.83,4.87-3.83,8.33c0,3.46,1.56,6.21,4.68,8.25c3.12,2.04,10.31,4.45,21.59,7.23
		c11.28,2.78,20.03,6.94,26.27,12.5c6.23,5.55,9.35,13.66,9.35,24.31c0,10.65-4,19.29-11.99,25.92c-7.99,6.63-18.5,9.95-31.53,9.95
		c-18.81,0-35.76-6.97-50.83-20.91l15.81-19.38c12.81,11.22,24.65,16.83,35.53,16.83c4.87,0,8.7-1.05,11.48-3.15
		c2.78-2.1,4.17-4.93,4.17-8.5s-1.47-6.4-4.42-8.5c-2.95-2.1-8.78-4.22-17.51-6.38c-13.83-3.29-23.94-7.57-30.34-12.83
		c-6.4-5.27-9.6-13.54-9.6-24.82c0-11.28,4.05-19.98,12.15-26.1c8.1-6.12,18.22-9.18,30.35-9.18c7.93,0,15.87,1.36,23.8,4.08
		c7.93,2.72,14.85,6.57,20.74,11.56l-13.43,19.38c-10.31-7.82-20.97-11.73-31.96-11.73C205.29,189.74,201.8,190.79,199.25,192.88z"
		/>
	<path class="st3" d="M356.59,274.74c-10.31,9.75-22.41,14.62-36.29,14.62c-13.88,0-25.36-4.28-34.43-12.83
		c-9.07-8.56-13.6-20.03-13.6-34.43c0-14.39,4.62-25.84,13.85-34.34c9.24-8.5,20.15-12.75,32.72-12.75
		c12.58,0,23.26,3.8,32.05,11.39c8.78,7.59,13.17,18.02,13.17,31.28v13.6h-66.64c0.79,4.99,3.4,9.07,7.82,12.24
		c4.42,3.17,9.41,4.76,14.96,4.76c8.95,0,16.32-3,22.1-9.01L356.59,274.74z M332.11,220.51c-3.51-2.95-7.79-4.42-12.83-4.42
		c-5.04,0-9.66,1.53-13.85,4.59c-4.19,3.06-6.63,7.2-7.31,12.41h40.12C337.66,227.65,335.62,223.46,332.11,220.51z"/>
	<path class="st3" d="M430.53,218.98c-7.59,0-13.26,2.69-17,8.08c-3.74,5.38-5.61,12.5-5.61,21.33V288h-25.5v-91.46h25.5v12.07
		c3.29-3.74,7.4-6.91,12.33-9.52c4.93-2.61,9.94-3.97,15.04-4.08l0.17,23.97H430.53z"/>
	<path class="st3" d="M476.94,288l-36.21-91.63h26.52L490.03,254l22.78-57.63h26.52L503.12,288H476.94z"/>
	<path class="st3" d="M554.04,184.89c-2.89-2.89-4.33-6.43-4.33-10.62c0-4.19,1.45-7.73,4.33-10.62c2.89-2.89,6.43-4.33,10.62-4.33
		c4.19,0,7.74,1.44,10.62,4.33c2.89,2.89,4.33,6.43,4.33,10.62c0,4.19-1.44,7.73-4.33,10.62c-2.89,2.89-6.43,4.33-10.62,4.33
		C560.47,189.23,556.93,187.78,554.04,184.89z M577.41,288h-25.5v-91.46h25.5V288z"/>
	<path class="st3" d="M645.41,266.75c8.5,0,16.15-4.25,22.95-12.75l15.13,17c-11.79,12.24-24.54,18.36-38.25,18.36
		c-13.71,0-25.3-4.33-34.76-13c-9.46-8.67-14.2-20-14.2-34c0-14,4.79-25.39,14.37-34.17c9.58-8.78,20.94-13.18,34.08-13.18
		c6.57,0,13.23,1.36,19.97,4.08c6.74,2.72,12.67,6.74,17.77,12.07l-13.26,17.34c-2.95-3.51-6.55-6.23-10.8-8.16
		c-4.25-1.93-8.47-2.89-12.67-2.89c-6.69,0-12.44,2.18-17.25,6.54c-4.82,4.36-7.22,10.43-7.22,18.19c0,7.76,2.41,13.8,7.22,18.11
		C633.31,264.6,638.95,266.75,645.41,266.75z"/>
	<path class="st3" d="M779.71,274.74c-10.31,9.75-22.41,14.62-36.29,14.62c-13.88,0-25.36-4.28-34.42-12.83
		c-9.07-8.56-13.6-20.03-13.6-34.43c0-14.39,4.62-25.84,13.86-34.34c9.24-8.5,20.14-12.75,32.72-12.75s23.26,3.8,32.04,11.39
		c8.78,7.59,13.17,18.02,13.17,31.28v13.6h-66.64c0.79,4.99,3.4,9.07,7.82,12.24c4.42,3.17,9.41,4.76,14.96,4.76
		c8.95,0,16.32-3,22.1-9.01L779.71,274.74z M755.23,220.51c-3.51-2.95-7.79-4.42-12.83-4.42c-5.04,0-9.66,1.53-13.85,4.59
		c-4.19,3.06-6.63,7.2-7.31,12.41h40.12C760.78,227.65,758.74,223.46,755.23,220.51z"/>
	<path class="st3" d="M874.4,259.53c0,9.01-3.31,16.23-9.95,21.67c-6.63,5.44-15.04,8.16-25.24,8.16c-6.8,0-13.88-1.22-21.25-3.66
		c-7.37-2.44-14-6.04-19.89-10.79l11.22-15.98c9.52,7.37,19.66,11.05,30.43,11.05c3.29,0,5.89-0.65,7.82-1.96
		c1.93-1.3,2.89-3.03,2.89-5.19c0-2.15-1.33-4.14-4-5.95c-2.66-1.81-6.52-3.51-11.56-5.1c-5.04-1.59-8.9-2.95-11.56-4.08
		c-2.66-1.13-5.7-2.78-9.09-4.93c-6.91-4.31-10.37-10.68-10.37-19.12c0-8.44,3.4-15.33,10.2-20.65c6.8-5.33,15.58-7.99,26.35-7.99
		c10.77,0,21.53,3.63,32.3,10.88l-9.52,17c-7.93-5.44-15.84-8.16-23.71-8.16c-7.88,0-11.82,2.15-11.82,6.46
		c0,2.38,1.25,4.25,3.74,5.61c2.49,1.36,6.63,2.95,12.41,4.76c5.78,1.81,9.89,3.2,12.32,4.17c2.44,0.96,5.36,2.46,8.76,4.5
		C871.23,244.08,874.4,250.51,874.4,259.53z"/>
</g>
<g transform="translate(0.000000,1231.000000) scale(0.100000,-0.100000)">
	<path class="st4" d="M2198.16,11796.43c-0.87-0.1-3.85-0.44-6.65-0.73c-32.1-3.24-65.57-17.08-91.71-37.89
		c-10.68-8.47-24.49-22.5-32.42-32.95c-32.51-42.77-46.59-96.48-39.3-150c6.24-45.77,27.69-87.92,60.02-117.97
		c6.47-6,15.59-13.31,21.92-17.66l4.26-2.9l-2.43-0.58c-6.51-1.6-21.64-6.05-28.8-8.52c-76.44-26.03-132.79-74.08-155.21-132.24
		c-6.88-17.85-10.78-38.13-10.78-56.18c0-5.08,1.51-30.87,2.11-35.66l0.23-2.08h291.12h291.12l0.23,2.08
		c0.6,4.74,2.11,30.53,2.11,35.42c0,15.29-2.75,32.32-7.66,47.42c-19.99,61.74-76.39,112.55-155.81,140.32
		c-8.8,3.1-25.72,8.23-30.49,9.19c-0.87,0.19-1.88,0.48-2.2,0.68c-0.32,0.19,1.88,2.08,5.96,5.03
		c17.24,12.29,31.68,26.81,44.02,44.13c4.45,6.24,8.48,12.68,11.05,17.47c1.1,2.08,3.03,5.66,4.22,7.94
		c3.12,5.71,7.43,15.87,10.5,24.53c11.1,31.69,14.08,66.48,8.53,100.55c-3.39,20.85-11.1,43.55-21.14,62.37
		c-3.85,7.16-11.42,18.92-16.74,25.94c-6.33,8.37-20.22,23.03-28.15,29.71c-6.42,5.42-17.7,13.5-24.07,17.32
		c-17.29,10.31-36.18,17.81-55.48,21.92c-11.46,2.47-18.8,3.19-33.24,3.39C2205.86,11796.57,2199.03,11796.52,2198.16,11796.43z"/>
</g>
</svg>
