<svg width="489" height="430" viewBox="0 0 489 430" fill="none" xmlns="http://www.w3.org/2000/svg">
<path opacity="0.5" d="M228.88 389.934C328.413 389.934 409.101 387.012 409.101 383.409C409.101 379.805 328.413 376.884 228.88 376.884C129.346 376.884 48.6582 379.805 48.6582 383.409C48.6582 387.012 129.346 389.934 228.88 389.934Z" fill="#D5ECFF"/>
<mask id="mask0" mask-type="alpha" maskUnits="userSpaceOnUse" x="236" y="358" width="46" height="26">
<path fill-rule="evenodd" clip-rule="evenodd" d="M281.398 358.241H236.763V383.31H281.398V358.241Z" fill="white"/>
</mask>
<g mask="url(#mask0)">
<path fill-rule="evenodd" clip-rule="evenodd" d="M241.908 359.223C241.908 359.223 242.855 366.395 240.284 370.861C237.712 375.327 234.194 381.282 239.607 381.417C245.02 381.552 254.223 380.605 266.538 382.5C278.853 384.394 283.184 382.77 280.748 379.658C278.312 376.545 259.05 373.011 258.198 365.87C257.378 359.003 259.053 358.241 259.053 358.241L241.908 359.223Z" fill="#C26E5E"/>
</g>
<path fill-rule="evenodd" clip-rule="evenodd" d="M169.628 355.911C169.628 355.911 170.576 363.084 168.004 367.55C165.433 372.015 161.915 377.97 167.328 378.105C172.741 378.241 181.944 377.293 194.259 379.188C206.574 381.083 210.904 379.459 208.468 376.346C206.032 373.234 183.973 368.497 186.409 361.73L188.845 354.964L169.628 355.911Z" fill="#C26E5E"/>
<path fill-rule="evenodd" clip-rule="evenodd" d="M261.941 313.454C262.384 332.49 262.605 359.717 262.605 359.717L241.384 360.538C241.384 360.538 236.956 361.759 234.208 308.472C233.851 301.562 220.047 250.474 220.489 256.536C221.002 263.55 188.181 357 188.181 357L169.194 356.869C186.248 257.788 194.775 208.248 194.775 208.248H243.936C243.936 208.248 261.499 294.417 261.941 313.454Z" fill="#56ACF6"/>
<path d="M223.634 239.726L219.941 256.415L221.039 256.658L224.732 239.969L223.634 239.726Z" fill="#204EB2"/>
<path fill-rule="evenodd" clip-rule="evenodd" d="M213.333 134.676C213.333 134.676 212.918 143.805 207.592 147.028C202.76 149.952 212.997 166.919 224.009 165.907C230.038 165.353 231.45 148.868 231.45 148.868C231.45 148.868 226.583 147.928 228.381 140.505L213.333 134.676Z" fill="#C26E5E"/>
<path fill-rule="evenodd" clip-rule="evenodd" d="M222.151 143.958C215.012 143.095 209.859 138.401 209.138 130.614C207.063 130.944 206.573 125.537 207.151 123.799C207.73 122.06 209.618 123.077 209.618 123.077C209.723 122.802 209.812 122.514 209.885 122.213C213.004 109.421 221.738 109.929 221.738 109.929C237.789 110.765 234.028 127.151 233.111 131.499C232.194 135.846 229.052 144.792 222.151 143.958Z" fill="#C26E5E"/>
<path fill-rule="evenodd" clip-rule="evenodd" d="M174.101 174.724C161.39 194.861 157.38 207.079 162.071 211.378C166.762 215.676 175.711 210.447 188.918 195.691C188.237 192.396 186.48 188.801 183.646 184.906C180.813 181.011 177.631 177.617 174.101 174.724Z" fill="#C26E5E"/>
<path fill-rule="evenodd" clip-rule="evenodd" d="M254.21 189.031L244.932 187.951C244.932 187.951 247.306 219.887 246.414 219.887C245.935 219.887 234.79 225.929 219.172 225.929C207.174 225.929 192.457 221.961 191.835 221.928C191.759 221.923 191.685 221.871 191.614 221.776C191.814 219.573 191.973 215.678 192.133 211.378C192.246 208.361 192.361 205.144 192.492 202.173C192.615 199.409 192.752 196.858 192.918 194.875C193.638 186.23 193.139 178.34 193.139 178.34L189.587 187.982L167.064 179.776C167.064 179.776 174.585 168.815 183.551 159.282C192.446 149.823 206.713 147.424 206.936 147.388C206.937 147.387 206.938 147.387 206.938 147.387C206.938 147.387 206.137 160.436 219.634 161.439C230.855 162.272 231.437 148.822 231.437 148.822C231.437 148.822 244.554 152.247 248.317 155.456C252.08 158.666 268.681 180.579 268.681 181.133C268.681 181.686 254.21 189.031 254.21 189.031Z" fill="#F9C818"/>
<path fill-rule="evenodd" clip-rule="evenodd" d="M192.492 202.173C192.361 205.144 192.246 208.36 192.133 211.377C192.108 209.333 192.189 206.394 192.492 202.173Z" fill="#F9C818"/>
<path fill-rule="evenodd" clip-rule="evenodd" d="M239.13 192.788L227.331 193.747C226.62 193.804 225.997 193.275 225.939 192.564L224.053 169.362C223.995 168.651 224.525 168.028 225.236 167.97L237.035 167.011C237.746 166.953 238.369 167.483 238.427 168.194L240.313 191.395C240.37 192.106 239.841 192.73 239.13 192.788Z" fill="#204EB2"/>
<path fill-rule="evenodd" clip-rule="evenodd" d="M240.332 192.144L228.491 193.107C227.792 193.164 227.178 192.643 227.122 191.943L225.301 169.545C225.244 168.846 225.765 168.232 226.465 168.176L238.306 167.213C239.005 167.156 239.618 167.677 239.675 168.377L241.496 190.775C241.552 191.475 241.031 192.088 240.332 192.144Z" fill="#1F9BEB"/>
<path fill-rule="evenodd" clip-rule="evenodd" d="M238.341 169.767C238.396 170.439 237.895 171.028 237.224 171.082C236.552 171.137 235.963 170.637 235.908 169.965C235.854 169.293 236.354 168.704 237.026 168.65C237.698 168.595 238.287 169.095 238.341 169.767Z" fill="#204EB2"/>
<path fill-rule="evenodd" clip-rule="evenodd" d="M236.004 191.326C236.004 191.326 230.087 192.616 230.049 190.568C230.049 190.568 234.07 188.899 234.98 188.975C235.89 189.051 240.101 189.544 240.101 189.544L234.904 186.965L229.746 188.558C229.746 188.558 228.57 188.633 228.039 187.799C227.508 186.965 228.115 186.471 228.115 186.471L234.866 184.234C234.866 184.234 235.094 183.513 233.387 183.437C231.68 183.361 227.925 183.096 227.925 183.096C227.925 183.096 227.091 182.375 227.47 181.085C227.849 179.796 229.973 180.251 229.973 180.251C229.973 180.251 228.798 179.113 230.58 177.861C230.58 177.861 236.042 178.013 238.052 179.265C240.063 180.516 253.823 188.966 253.823 188.966L264.534 183.34C278.09 199.933 281.686 209.764 275.323 212.832C268.96 215.9 255.854 208.732 236.004 191.326Z" fill="#C26E5E"/>
<path fill-rule="evenodd" clip-rule="evenodd" d="M241.947 183.867L236.569 180.819L229.873 180.102L229.921 179.654L236.664 180.377C236.694 180.38 236.724 180.389 236.751 180.405L242.169 183.475L241.947 183.867Z" fill="black"/>
<path fill-rule="evenodd" clip-rule="evenodd" d="M263.533 195.116L250.68 187.039L250.919 186.658L263.772 194.735L263.533 195.116Z" fill="black"/>
<path fill-rule="evenodd" clip-rule="evenodd" d="M182.939 185.879L170.046 193.891L169.808 193.508L182.702 185.497L182.939 185.879Z" fill="black"/>
<path fill-rule="evenodd" clip-rule="evenodd" d="M241.509 186.338C241.475 186.315 238.106 184.034 237.227 183.667C236.557 183.388 235.216 183.898 234.757 184.118L234.562 183.712C234.637 183.676 236.409 182.839 237.4 183.252C238.32 183.635 241.622 185.87 241.762 185.965L241.509 186.338Z" fill="black"/>
<path fill-rule="evenodd" clip-rule="evenodd" d="M240.354 177.438L243.674 182.516L240.516 180.53L240.354 177.438Z" fill="#C26E5E"/>
<path fill-rule="evenodd" clip-rule="evenodd" d="M243.554 182.706L240.396 180.721L240.636 180.34L243.793 182.325L243.554 182.706Z" fill="black"/>
<path fill-rule="evenodd" clip-rule="evenodd" d="M199.466 195.087L195.513 195.01C191.35 194.928 188.041 191.487 188.123 187.324L188.37 174.724L206.35 175.076L206.082 188.726C206.012 192.31 203.05 195.158 199.466 195.087Z" fill="white"/>
<path fill-rule="evenodd" clip-rule="evenodd" d="M187.976 179.079C187.976 179.079 186.353 180.122 185.832 180.76C185.31 181.397 185.774 181.513 184.615 182.73C183.456 183.947 181.37 187.018 185.021 191.712C188.671 196.406 189.888 196 191.395 195.189C192.902 194.377 193.075 193.798 195.915 193.508C198.754 193.219 201.478 190.437 201.42 189.742L201.362 189.046C201.362 189.046 203.97 188.061 203.796 186.96C203.622 185.859 202.869 185.975 202.869 185.975C202.869 185.975 203.39 185.453 202.985 184.526C202.579 183.599 200.667 183.773 198.465 184.063C196.263 184.352 190.584 185.511 190.236 185.28C189.888 185.048 190.004 184.7 191.337 184.526C192.67 184.352 198.059 184.294 198.059 182.788C198.059 181.281 196.436 180.991 193.307 181.049C190.178 181.107 189.599 180.933 188.845 181.223L188.092 181.513L187.976 179.079Z" fill="#C26E5E"/>
<path fill-rule="evenodd" clip-rule="evenodd" d="M202.914 185.969C202.914 185.969 203.081 185.849 201.841 186.322C201.389 186.494 200.753 186.674 199.856 186.844C196.494 187.482 191.221 188.641 189.599 188.873C187.976 189.104 189.309 189.452 193.018 188.699C196.726 187.945 201.141 186.935 201.339 186.869C201.677 186.756 202.689 186.419 202.914 185.969Z" fill="black"/>
<path fill-rule="evenodd" clip-rule="evenodd" d="M200.144 189.395C200.144 189.395 197.401 190.356 196.051 190.694C194.618 191.052 193.538 191.539 193.248 191.075C192.959 190.611 192.611 190.496 192.611 190.496L192.147 191.017C192.147 191.017 192.226 191.594 191.973 191.654C191.523 191.763 190.641 191.944 190.641 191.944C190.641 191.944 190.651 192.269 193.351 191.706C194.021 191.567 195.264 191.369 196.051 191.144C196.775 190.937 199.391 190.264 199.739 189.974C200.086 189.684 200.144 189.395 200.144 189.395Z" fill="black"/>
<path fill-rule="evenodd" clip-rule="evenodd" d="M191.626 189.104C191.626 189.104 191.583 191.438 192.242 191.401C192.901 191.364 193.132 191.364 193.248 191.19C193.364 191.016 193.074 190.437 193.074 189.799C193.074 189.162 193.074 188.872 192.553 188.93C192.031 188.988 191.684 188.988 191.626 189.104Z" fill="#F9C818"/>
<path d="M226.943 125.17L227.371 125.307L227.329 125.442C227.296 125.551 227.258 125.676 227.218 125.815C227.102 126.213 226.986 126.639 226.878 127.078C226.758 127.566 226.655 128.04 226.575 128.487L226.552 128.619C226.356 129.756 226.329 130.623 226.503 131.09L226.514 131.117C227.512 133.587 226.156 134.84 223.309 133.963L223.223 133.936L223.36 133.507C225.924 134.328 226.952 133.403 226.096 131.285C225.861 130.702 225.897 129.713 226.132 128.407C226.214 127.95 226.319 127.468 226.441 126.971C226.539 126.575 226.642 126.189 226.746 125.825L226.785 125.69C226.809 125.609 226.832 125.533 226.853 125.461L226.908 125.281L226.943 125.17Z" fill="black"/>
<path d="M215.834 142.384L216.054 141.991L216.134 142.035L216.208 142.074C216.32 142.133 216.447 142.198 216.588 142.267L216.649 142.297C217.124 142.528 217.649 142.76 218.209 142.976C219.497 143.472 220.77 143.811 221.954 143.921C222.49 143.971 222.999 143.972 223.475 143.921L223.57 143.91L223.625 144.357C223.088 144.423 222.515 144.425 221.912 144.369C220.682 144.255 219.371 143.906 218.048 143.396C217.475 143.175 216.938 142.938 216.452 142.702L216.269 142.611C216.19 142.572 216.117 142.534 216.049 142.499L215.921 142.431L215.834 142.384Z" fill="black"/>
<path fill-rule="evenodd" clip-rule="evenodd" d="M224.029 137.487C221.906 137.487 220.305 136.515 220.23 136.468C220.072 136.37 220.023 136.162 220.121 136.004C220.219 135.845 220.427 135.796 220.585 135.894C220.617 135.914 222.497 137.043 224.764 136.768C224.947 136.746 225.117 136.877 225.14 137.063C225.162 137.248 225.03 137.416 224.845 137.438C224.566 137.472 224.294 137.487 224.029 137.487Z" fill="black"/>
<path fill-rule="evenodd" clip-rule="evenodd" d="M224.906 134.244C224.451 134.244 223.884 134.155 223.176 133.928L223.313 133.499C224.632 133.921 225.606 133.887 226.056 133.402C226.439 132.99 226.437 132.235 226.049 131.278C225.787 130.628 225.852 129.396 226.242 127.615C226.528 126.312 226.892 125.173 226.896 125.162L227.324 125.3C226.93 126.53 226.007 129.971 226.467 131.109C227.051 132.555 226.745 133.321 226.386 133.708C226.129 133.985 225.682 134.244 224.906 134.244Z" fill="black"/>
<mask id="mask1" mask-type="alpha" maskUnits="userSpaceOnUse" x="216" y="122" width="8" height="3">
<path fill-rule="evenodd" clip-rule="evenodd" d="M216.043 122.75H223.648V124.931H216.043V122.75Z" fill="white"/>
</mask>
<g mask="url(#mask1)">
<path fill-rule="evenodd" clip-rule="evenodd" d="M223.03 124.931C222.962 124.931 222.893 124.92 222.826 124.896C222.169 124.667 220.273 124.058 219.394 123.993C218.566 123.932 217.304 124.341 216.887 124.504C216.569 124.628 216.21 124.471 216.086 124.153C215.961 123.835 216.118 123.476 216.436 123.351C216.507 123.323 218.206 122.664 219.485 122.759C220.706 122.85 223.131 123.692 223.233 123.728C223.556 123.841 223.726 124.193 223.614 124.516C223.525 124.771 223.285 124.931 223.03 124.931Z" fill="black"/>
</g>
<path fill-rule="evenodd" clip-rule="evenodd" d="M233.439 127.044C233.315 127.044 233.19 127.005 233.082 126.927C232.738 126.675 231.676 125.992 230.903 125.863C230.079 125.725 228.184 125.881 227.523 125.952C227.191 125.988 226.893 125.748 226.857 125.417C226.821 125.085 227.061 124.787 227.392 124.751C227.496 124.74 229.946 124.478 231.103 124.671C232.318 124.875 233.737 125.909 233.797 125.953C234.066 126.15 234.124 126.528 233.926 126.797C233.808 126.958 233.625 127.044 233.439 127.044Z" fill="black"/>
<path fill-rule="evenodd" clip-rule="evenodd" d="M221.497 127.661C221.497 128.027 221.201 128.323 220.835 128.323C220.47 128.323 220.174 128.027 220.174 127.661C220.174 127.296 220.47 127 220.835 127C221.201 127 221.497 127.296 221.497 127.661Z" fill="black"/>
<path fill-rule="evenodd" clip-rule="evenodd" d="M229.962 128.413C229.962 128.779 229.665 129.075 229.3 129.075C228.935 129.075 228.639 128.779 228.639 128.413C228.639 128.048 228.935 127.752 229.3 127.752C229.665 127.752 229.962 128.048 229.962 128.413Z" fill="black"/>
<path fill-rule="evenodd" clip-rule="evenodd" d="M188.672 87.6837C195.535 93.0836 202.172 103.996 213.872 102.308C225.571 100.621 240.898 107.531 233.966 126.632C233.966 126.632 234.234 116.258 228.384 112.658C222.534 109.058 220.622 128.07 209.484 123.233C209.484 123.233 207.684 122.221 207.234 123.795C206.784 125.37 207.093 129.567 208.288 130.393C208.288 130.393 208.584 130.658 209.147 130.433C209.147 130.433 209.483 135.774 212.634 139.066C212.634 139.066 211.846 141.683 211.565 142.077L211.364 142.123C211.364 142.123 200.597 150.457 188.897 141.008C177.197 131.558 169.435 138.758 159.985 129.983C150.535 121.208 173.232 94.7413 167.41 88.4712C174.385 80.9338 185.311 85.0392 188.672 87.6837Z" fill="#C38741"/>
<path fill-rule="evenodd" clip-rule="evenodd" d="M223.316 126.823C223.316 128.917 221.619 130.614 219.525 130.614C217.432 130.614 215.734 128.917 215.734 126.823C215.734 124.729 217.432 123.032 219.525 123.032C221.619 123.032 223.316 124.729 223.316 126.823Z" fill="black"/>
<path fill-rule="evenodd" clip-rule="evenodd" d="M219.526 123.426C217.653 123.426 216.129 124.95 216.129 126.823C216.129 128.696 217.653 130.22 219.526 130.22C221.399 130.22 222.923 128.696 222.923 126.823C222.923 124.95 221.399 123.426 219.526 123.426ZM219.526 131.008C217.219 131.008 215.342 129.13 215.342 126.823C215.342 124.516 217.219 122.639 219.526 122.639C221.834 122.639 223.711 124.516 223.711 126.823C223.711 129.13 221.834 131.008 219.526 131.008Z" fill="black"/>
<path fill-rule="evenodd" clip-rule="evenodd" d="M233.882 127.847C233.882 129.941 232.185 131.638 230.092 131.638C227.998 131.638 226.301 129.941 226.301 127.847C226.301 125.754 227.998 124.057 230.092 124.057C232.185 124.057 233.882 125.754 233.882 127.847Z" fill="black"/>
<mask id="mask2" mask-type="alpha" maskUnits="userSpaceOnUse" x="225" y="123" width="10" height="10">
<path fill-rule="evenodd" clip-rule="evenodd" d="M225.908 123.663H234.277V132.032H225.908V123.663Z" fill="white"/>
</mask>
<g mask="url(#mask2)">
<path fill-rule="evenodd" clip-rule="evenodd" d="M230.093 124.451C228.22 124.451 226.696 125.974 226.696 127.848C226.696 129.721 228.22 131.245 230.093 131.245C231.966 131.245 233.49 129.721 233.49 127.848C233.49 125.974 231.966 124.451 230.093 124.451ZM230.093 132.032C227.785 132.032 225.908 130.155 225.908 127.848C225.908 125.54 227.785 123.663 230.093 123.663C232.4 123.663 234.277 125.54 234.277 127.848C234.277 130.155 232.4 132.032 230.093 132.032Z" fill="black"/>
</g>
<path fill-rule="evenodd" clip-rule="evenodd" d="M215.476 126.548L209.852 124.298L210.144 123.566L215.769 125.816L215.476 126.548Z" fill="black"/>
<path fill-rule="evenodd" clip-rule="evenodd" d="M226.155 127.811L223.205 127.483L223.292 126.7L226.242 127.029L226.155 127.811Z" fill="black"/>
<path fill-rule="evenodd" clip-rule="evenodd" d="M229.626 139.39C229.626 139.39 229.063 137.811 227.225 135.77C226.212 134.646 220.716 131.958 218.489 134.1C216.263 136.241 215.048 136.667 215.431 136.731C219.18 137.349 219.95 135.671 221.685 135.761C223.624 135.863 224.712 135.652 224.712 135.652C225.218 136.461 225.774 137.052 227.022 138.148C227.437 138.512 229.339 140.276 229.626 139.39Z" fill="#C38741"/>
<path fill-rule="evenodd" clip-rule="evenodd" d="M157.52 248.696L186.426 264.72L126.919 385.441L86.6763 363.134L157.52 248.696Z" fill="#DDB0C8"/>
<path fill-rule="evenodd" clip-rule="evenodd" d="M278.013 57.0761C334.881 88.5984 355.427 160.253 323.905 217.12C292.383 273.988 220.728 294.534 163.861 263.012C106.993 231.49 86.4466 159.836 117.969 102.968C149.491 46.1004 221.145 25.5538 278.013 57.0761ZM268.332 74.5406C221.11 48.3649 161.609 65.4265 135.433 112.649C109.258 159.871 126.319 219.372 173.541 245.548C220.764 271.723 280.265 254.662 306.44 207.439C332.616 160.217 315.554 100.716 268.332 74.5406Z" fill="#FCEBEC"/>
<path fill-rule="evenodd" clip-rule="evenodd" d="M324.165 321.759L328.215 359.693C328.215 359.693 288.805 369.171 274.436 356.775L272.978 323.38C272.978 323.38 290.041 322.84 324.165 321.759Z" fill="#D60000"/>
<path fill-rule="evenodd" clip-rule="evenodd" d="M306.958 272.373C306.958 272.373 307.373 281.503 312.699 284.725C317.531 287.649 307.294 304.616 296.282 303.604C290.253 303.05 288.841 286.566 288.841 286.566C288.841 286.566 293.708 285.625 291.91 278.203L306.958 272.373Z" fill="#7D4439"/>
<path fill-rule="evenodd" clip-rule="evenodd" d="M298.14 281.655C305.279 280.792 310.432 276.098 311.153 268.311C313.228 268.642 313.718 263.234 313.14 261.497C312.561 259.757 310.673 260.774 310.673 260.774C310.568 260.499 310.479 260.211 310.406 259.911C307.288 247.118 298.553 247.626 298.553 247.626C282.502 248.462 286.263 264.849 287.18 269.196C288.097 273.544 291.239 282.489 298.14 281.655Z" fill="#7D4439"/>
<path fill-rule="evenodd" clip-rule="evenodd" d="M274.405 333.923C276.773 332.959 279.824 329.906 283.475 324.851C286.183 321.102 288.23 317.587 288.25 317.552L287.861 317.326C287.78 317.465 279.714 331.275 274.235 333.506L274.405 333.923Z" fill="#864A56"/>
<mask id="mask3" mask-type="alpha" maskUnits="userSpaceOnUse" x="270" y="284" width="69" height="70">
<path fill-rule="evenodd" clip-rule="evenodd" d="M338.34 284.252H270.4V353.631H338.34V284.252Z" fill="white"/>
</mask>
<g mask="url(#mask3)">
<path fill-rule="evenodd" clip-rule="evenodd" d="M312.243 284.252C312.243 284.252 332.235 286.145 336.357 306.91C340.48 327.676 340.974 352.17 309.206 353.438C277.437 354.706 274.735 349.361 274.758 348.194C274.781 347.026 274.219 327.789 271.631 313.164C269.044 298.539 268.819 290.664 288.619 285.827C288.619 285.827 297.393 297.527 312.243 284.252Z" fill="#D60000"/>
</g>
<path fill-rule="evenodd" clip-rule="evenodd" d="M297.057 292.802L294.694 282.002C294.694 282.002 294.807 280.202 291.994 280.315C289.182 280.427 269.27 280.09 269.27 280.09C269.27 280.09 267.695 279.865 267.245 281.327C266.795 282.79 272.645 307.314 272.645 307.314C272.645 307.314 272.532 309.002 274.445 309.002C276.357 309.002 299.869 309.902 299.869 309.902L297.057 292.802Z" fill="#204EB2"/>
<mask id="mask4" mask-type="alpha" maskUnits="userSpaceOnUse" x="267" y="280" width="33" height="30">
<path fill-rule="evenodd" clip-rule="evenodd" d="M299.936 280.022H267.165V309.961H299.936V280.022Z" fill="white"/>
</mask>
<g mask="url(#mask4)">
<path fill-rule="evenodd" clip-rule="evenodd" d="M297.001 292.812L299.802 309.842C298.391 309.788 276.285 308.945 274.444 308.945C273.856 308.945 273.406 308.782 273.106 308.462C272.662 307.989 272.7 307.324 272.701 307.317L272.701 307.309L272.699 307.3C272.641 307.055 266.858 282.774 267.298 281.343C267.729 279.945 269.199 280.136 269.262 280.145C269.468 280.149 289.215 280.482 291.996 280.37C293.026 280.329 293.774 280.539 294.22 280.993C294.665 281.447 294.638 281.993 294.638 281.998L294.637 282.006L294.639 282.014L297.001 292.812ZM299.936 309.96L297.111 292.789L294.751 281.997C294.753 281.921 294.756 281.381 294.302 280.916C293.834 280.437 293.054 280.217 291.992 280.258C289.213 280.369 269.47 280.036 269.27 280.033C269.261 280.031 267.649 279.819 267.191 281.31C266.743 282.767 272.323 306.207 272.588 307.319C272.584 307.406 272.569 308.053 273.023 308.538C273.345 308.883 273.823 309.057 274.444 309.057C276.334 309.057 299.632 309.948 299.867 309.957L299.936 309.96Z" fill="black"/>
</g>
<path fill-rule="evenodd" clip-rule="evenodd" d="M296.268 293.59L293.905 282.79C293.905 282.79 294.018 280.99 291.205 281.103C288.393 281.215 268.481 280.878 268.481 280.878C268.481 280.878 266.906 280.653 266.456 282.115C266.006 283.578 271.856 308.102 271.856 308.102C271.856 308.102 271.743 309.79 273.656 309.79C275.568 309.79 299.08 310.69 299.08 310.69L296.268 293.59Z" fill="#56ACF6"/>
<path fill-rule="evenodd" clip-rule="evenodd" d="M308.508 310.524C308.508 310.524 301.965 303.068 300.181 299.872C298.396 296.677 298.396 294.813 298.545 293.348C298.694 291.883 298.694 290.152 297.504 289.886C296.315 289.62 296.166 290.286 296.017 291.883C295.869 293.481 296.017 295.079 293.341 294.147C290.665 293.215 284.122 290.951 283.378 292.815C282.635 294.679 284.271 294.946 284.271 294.946C284.271 294.946 283.081 295.079 282.784 296.011C282.486 296.943 282.784 297.609 283.676 298.008C284.568 298.408 285.014 298.541 285.014 298.541C285.014 298.541 283.23 298.274 282.784 299.606C282.338 300.937 283.081 301.603 283.825 301.869C283.825 301.869 282.868 302.023 282.635 303.068C282.486 303.734 283.378 304.133 284.419 304.532C285.826 305.072 290.07 305.198 293.638 307.461C297.207 309.725 305.831 324.504 310.143 329.031C314.455 333.558 318.768 321.841 318.768 321.841C318.768 321.841 313.415 315.051 308.508 310.524Z" fill="#7D4439"/>
<path fill-rule="evenodd" clip-rule="evenodd" d="M291.662 297.106L291.75 296.78L284.315 294.783L284.228 295.109L291.662 297.106Z" fill="black"/>
<path fill-rule="evenodd" clip-rule="evenodd" d="M291.662 300.568L291.75 300.242L284.315 298.245L284.228 298.571L291.662 300.568Z" fill="black"/>
<path fill-rule="evenodd" clip-rule="evenodd" d="M290.77 304.029L290.857 303.703L283.423 301.706L283.335 302.032L290.77 304.029Z" fill="black"/>
<mask id="mask5" mask-type="alpha" maskUnits="userSpaceOnUse" x="263" y="289" width="15" height="45">
<path fill-rule="evenodd" clip-rule="evenodd" d="M277.557 289.543H263.081V333.977H277.557V289.543Z" fill="white"/>
</mask>
<g mask="url(#mask5)">
<path fill-rule="evenodd" clip-rule="evenodd" d="M273.791 327.629C273.791 327.629 272.751 322.303 272.305 315.646C271.858 308.988 272.007 306.059 272.602 305.527C273.197 304.994 277.36 305.127 277.36 302.997C277.36 300.866 274.386 301.532 274.386 301.532C274.386 301.532 277.509 301 277.211 299.402C276.914 297.804 275.13 298.07 275.13 298.07C275.13 298.07 277.955 297.538 277.509 295.807C277.063 294.076 274.386 294.742 274.386 294.742C274.386 294.742 276.914 294.342 275.873 292.611C274.832 290.88 273.048 291.946 270.966 292.478C268.885 293.011 268.736 293.144 268.587 292.345C268.439 291.546 268.736 289.416 267.1 289.549C265.465 289.682 265.167 290.215 265.167 293.144C265.167 296.073 264.721 298.736 264.275 301.399C263.829 304.062 263.68 307.124 263.978 312.051C264.275 316.977 260.112 331.49 267.546 333.621C274.981 335.751 273.791 327.629 273.791 327.629Z" fill="#7D4439"/>
</g>
<path fill-rule="evenodd" clip-rule="evenodd" d="M270.648 302.446L275.021 301.507L274.95 301.177L270.577 302.116L270.648 302.446Z" fill="black"/>
<path fill-rule="evenodd" clip-rule="evenodd" d="M270.752 299.175L275.125 298.235L275.054 297.905L270.681 298.845L270.752 299.175Z" fill="black"/>
<path fill-rule="evenodd" clip-rule="evenodd" d="M270.561 295.656L274.934 294.717L274.863 294.387L270.49 295.326L270.561 295.656Z" fill="black"/>
<path fill-rule="evenodd" clip-rule="evenodd" d="M266.535 293.509L268.691 293.043L268.62 292.713L266.464 293.179L266.535 293.509Z" fill="black"/>
<path fill-rule="evenodd" clip-rule="evenodd" d="M455.035 375.934L451.885 387.505L457.622 389.433L461.222 378.071L455.035 375.934Z" fill="#F8D8B8"/>
<path fill-rule="evenodd" clip-rule="evenodd" d="M460.884 377.284L456.834 390.109L462.684 392.021L466.959 379.534L460.884 377.284Z" fill="#E4F9FF"/>
<path fill-rule="evenodd" clip-rule="evenodd" d="M467.409 378.184C467.409 378.184 466.51 378.184 465.385 378.746C464.26 379.309 458.41 387.071 461.785 391.909C461.785 391.909 462.347 392.246 463.022 392.359C463.697 392.471 464.935 394.496 467.072 395.621C467.072 395.621 466.622 394.158 468.309 389.771C469.997 385.384 479.672 362.097 484.284 361.872C484.284 361.872 482.484 360.409 476.972 366.709C471.765 372.66 467.409 378.184 467.409 378.184Z" fill="#2E2C36"/>
<path fill-rule="evenodd" clip-rule="evenodd" d="M467.071 395.621C467.071 395.621 468.984 398.883 472.021 398.321C475.059 397.758 475.94 394.976 476.962 392.655C477.984 390.333 488.324 364.797 488.324 364.797C488.324 364.797 487.185 361.12 484.068 361.833C480.459 362.659 477.084 370.309 477.084 370.309L467.296 390.558C467.296 390.558 466.284 393.483 467.071 395.621Z" fill="#E4F9FF"/>
<mask id="mask6" mask-type="alpha" maskUnits="userSpaceOnUse" x="469" y="363" width="20" height="34">
<path fill-rule="evenodd" clip-rule="evenodd" d="M469.771 363.893H488.702V396.915H469.771V363.893Z" fill="white"/>
</mask>
<g mask="url(#mask6)">
<path fill-rule="evenodd" clip-rule="evenodd" d="M469.771 394.496L482.259 367.721C482.259 367.721 484.846 363.109 487.434 364.009C490.021 364.909 487.996 369.071 487.096 372.334C486.196 375.596 477.196 394.721 474.834 396.521C473.184 397.778 469.884 395.733 469.771 394.496Z" fill="#2E2C36"/>
</g>
<path fill-rule="evenodd" clip-rule="evenodd" d="M463.022 392.359C463.022 392.359 461.784 389.096 463.247 385.159C464.709 381.221 467.409 378.184 467.409 378.184C467.409 378.184 464.563 377.292 462.161 383.026C459.759 388.759 460.209 391.796 463.022 392.584" fill="#3B3D4A"/>
<path d="M469.437 378.921L470.555 378.797L470.568 378.924L470.581 379.08C470.586 379.135 470.59 379.193 470.594 379.253C470.638 379.889 470.648 380.551 470.605 381.176C470.574 381.618 470.517 382.019 470.43 382.37C470.287 382.942 469.885 383.391 469.261 383.782L469.195 383.823C468.806 384.059 468.378 384.256 467.669 384.543L466.941 384.833C466.299 385.092 465.906 385.269 465.544 385.472C465.082 385.73 464.769 386.283 464.602 387.069C464.477 387.656 464.448 388.287 464.478 388.856L464.483 388.946C464.485 388.986 464.488 389.022 464.491 389.055L464.497 389.118L463.378 389.241L463.37 389.151C463.367 389.121 463.365 389.086 463.362 389.047L463.36 389.017C463.317 388.331 463.345 387.569 463.501 386.835C463.729 385.763 464.198 384.936 464.994 384.49C465.407 384.258 465.835 384.066 466.516 383.792L467.063 383.574C468.611 382.956 469.219 382.575 469.338 382.098C469.408 381.817 469.456 381.479 469.483 381.098C469.522 380.532 469.512 379.918 469.472 379.33L469.464 379.221C469.461 379.186 469.459 379.153 469.456 379.12L469.439 378.937L469.437 378.921Z" fill="white"/>
<path fill-rule="evenodd" clip-rule="evenodd" d="M324.551 391.54C324.551 391.54 325.786 396.477 326.355 397.363C326.924 398.249 337.495 403.01 340.868 402.685C344.242 402.359 349.913 400.212 350.657 398.596C351.4 396.98 350.399 391.99 349.331 391.072C348.262 390.154 324.551 391.54 324.551 391.54Z" fill="#E4F9FF"/>
<mask id="mask7" mask-type="alpha" maskUnits="userSpaceOnUse" x="272" y="341" width="185" height="48">
<path fill-rule="evenodd" clip-rule="evenodd" d="M272.08 341.721H456.61V388.758H272.08V341.721Z" fill="white"/>
</mask>
<g mask="url(#mask7)">
<path fill-rule="evenodd" clip-rule="evenodd" d="M273.9 348.654C273.9 348.654 265.588 379.871 284.488 384.708C303.388 389.546 324.508 385.172 347.712 377.621C366.724 371.433 365.936 364.346 390.124 371.321C407.431 376.312 451.997 388.758 451.997 388.758L456.61 375.258C456.61 375.258 390.124 340.947 363.687 341.734C353.785 342.029 322.604 348.37 322.604 348.37L273.9 348.654Z" fill="#E93737"/>
</g>
<mask id="mask8" mask-type="alpha" maskUnits="userSpaceOnUse" x="276" y="304" width="56" height="66">
<path fill-rule="evenodd" clip-rule="evenodd" d="M276.352 304.322H331.85V369.409H276.352V304.322Z" fill="white"/>
</mask>
<g mask="url(#mask8)">
<path fill-rule="evenodd" clip-rule="evenodd" d="M276.352 352.503C276.352 352.503 297.088 309.56 304.963 305.735C312.837 301.91 315.875 306.523 316.55 311.585C317.225 316.647 331.85 364.796 331.85 364.796L314.412 369.409L276.352 352.503Z" fill="#E93737"/>
</g>
<path d="M303.816 345.463L314.559 367.945L314.153 368.139L303.41 345.657L303.816 345.463Z" fill="black"/>
<path fill-rule="evenodd" clip-rule="evenodd" d="M329.325 364.843L330.643 369.158C325.404 369.153 321.255 371.538 320.121 372.106L318.938 367.875L329.325 364.843Z" fill="#F7C8A9"/>
<path fill-rule="evenodd" clip-rule="evenodd" d="M333.534 377.315L322.077 380.162L319.699 371.547C319.699 371.547 319.731 371.532 319.924 371.434C321.058 370.866 325.563 368.766 330.802 368.771" fill="#E4F9FF"/>
<path fill-rule="evenodd" clip-rule="evenodd" d="M329.754 394.419C329.754 394.419 337.781 397.725 343.218 395.631C348.655 393.537 349.906 392.142 349.875 392.004C349.844 391.866 340.847 384.102 339.076 383.342C337.304 382.583 332.741 379.265 330.926 382.137C329.111 385.008 326.406 387.211 326.755 389.306C327.104 391.4 329.754 394.419 329.754 394.419Z" fill="#353644"/>
<path fill-rule="evenodd" clip-rule="evenodd" d="M322.346 381.752C322.346 381.752 322.788 389.18 324.799 392.638L330.051 394.642C330.051 394.642 328.534 390.643 329.778 389.059C331.021 387.475 331.734 385.721 331.751 384.703C331.768 383.685 336.305 382.518 336.305 382.518C336.305 382.518 337.061 384.231 338.412 384.217C339.762 384.202 346.719 389.256 346.719 389.256C346.719 389.256 345.017 387.46 343.231 385.544C341.445 383.629 335.187 377.555 335.187 377.555L322.346 381.752Z" fill="#2C262B"/>
<path fill-rule="evenodd" clip-rule="evenodd" d="M321.746 378.737C321.746 378.737 320.627 379.912 321.338 381.02C322.049 382.128 324.439 381.475 326.719 380.846C328.999 380.217 334.461 378.87 334.861 378.088C335.262 377.306 334.537 375.624 333.072 375.263C333.072 375.263 333.503 376.665 332.894 377.033C332.285 377.4 322.751 380.125 322.347 379.87C321.944 379.615 321.746 378.737 321.746 378.737Z" fill="#3E454F"/>
<path fill-rule="evenodd" clip-rule="evenodd" d="M329.903 384.741C329.903 384.741 332.871 381.535 336.18 382.404C336.18 382.404 337.267 382.62 336.874 381.902C336.482 381.183 335.908 381.197 335.908 381.197C335.908 381.197 335.979 380.489 335.381 380.393C335.381 380.393 335.562 379.66 334.744 379.614C334.744 379.614 334.483 377.943 332.716 378.802C330.95 379.662 327.523 380.318 327.965 381.257C328.407 382.195 328.662 381.792 328.662 381.792C328.662 381.792 328.456 382.415 328.934 382.999C329.411 383.583 329.337 383.254 329.337 383.254C329.337 383.254 328.792 384.415 329.903 384.741Z" fill="white"/>
<path d="M328.248 382C328.248 382 328.917 381.388 330.015 381.141" stroke="black" stroke-width="1.57363"/>
<path d="M335.158 379.405C335.158 379.405 333.926 379.567 333.207 379.96" stroke="black" stroke-width="1.57363"/>
<path d="M336.434 381.168C336.434 381.168 334.738 381.115 333.994 381.398" stroke="black" stroke-width="1.57363"/>
<path d="M328.838 383.597C328.838 383.597 329.897 382.667 331.408 382.211" stroke="black" stroke-width="1.57363"/>
<path fill-rule="evenodd" clip-rule="evenodd" d="M300.441 273.717C300.441 273.717 300.717 275.49 298.269 276.159C295.821 276.827 294.662 276.666 294.555 275.518C294.555 275.518 294.778 274.216 295.354 274.081C295.93 273.946 296.584 274.178 296.584 274.178C296.584 274.178 297.06 273.327 297.681 273.321C298.302 273.315 299.622 273.859 300.441 273.717Z" fill="#CE4129"/>
<path fill-rule="evenodd" clip-rule="evenodd" d="M296.191 275.296C297.975 274.798 300.103 274.171 300.738 273.734C301.2 273.415 301.392 273.452 301.394 273.452C301.394 273.452 301.154 272.901 300.482 273.363C299.829 273.814 297 274.603 296.07 274.863C294.444 275.316 294.283 275.252 294.078 275.171L293.912 275.588C294.11 275.668 294.292 275.707 294.684 275.652C295.005 275.607 295.466 275.499 296.191 275.296Z" fill="black"/>
<path fill-rule="evenodd" clip-rule="evenodd" d="M297.567 282.068C299.125 282.068 300.736 281.613 301.892 281.193C303.372 280.655 304.446 280.056 304.457 280.05L304.292 279.756C304.25 279.779 300.077 282.092 296.742 281.682L296.701 282.017C296.985 282.052 297.275 282.068 297.567 282.068Z" fill="black"/>
<path d="M293.35 262.869L292.922 263.007L292.964 263.141C292.997 263.25 293.035 263.376 293.075 263.515C293.191 263.912 293.307 264.338 293.415 264.777C293.535 265.266 293.638 265.739 293.718 266.186L293.741 266.318C293.937 267.455 293.964 268.323 293.79 268.789L293.779 268.816C292.781 271.287 294.137 272.54 296.984 271.662L297.07 271.635L296.933 271.206C294.369 272.027 293.341 271.103 294.197 268.985C294.432 268.402 294.396 267.412 294.161 266.106C294.079 265.649 293.974 265.167 293.852 264.67C293.754 264.274 293.651 263.888 293.547 263.524L293.507 263.389C293.484 263.308 293.461 263.232 293.44 263.161L293.385 262.98L293.35 262.869Z" fill="black"/>
<path d="M304.459 280.083L304.239 279.69L304.158 279.734L304.085 279.773C303.973 279.832 303.846 279.897 303.705 279.966L303.644 279.996C303.169 280.228 302.644 280.459 302.084 280.675C300.796 281.172 299.523 281.511 298.339 281.621C297.803 281.67 297.294 281.672 296.818 281.62L296.723 281.61L296.668 282.056C297.205 282.122 297.778 282.125 298.381 282.069C299.611 281.954 300.922 281.605 302.245 281.095C302.818 280.874 303.355 280.638 303.841 280.401L304.024 280.31C304.103 280.271 304.176 280.233 304.244 280.198L304.371 280.131L304.459 280.083Z" fill="black"/>
<path fill-rule="evenodd" clip-rule="evenodd" d="M295.387 271.942C295.842 271.942 296.409 271.853 297.117 271.626L296.98 271.198C295.661 271.62 294.687 271.585 294.237 271.1C293.854 270.688 293.856 269.933 294.244 268.976C294.506 268.326 294.441 267.094 294.051 265.313C293.765 264.01 293.401 262.872 293.397 262.86L292.969 262.998C293.363 264.228 294.286 267.669 293.826 268.807C293.242 270.254 293.548 271.019 293.907 271.407C294.164 271.683 294.611 271.942 295.387 271.942Z" fill="black"/>
<path fill-rule="evenodd" clip-rule="evenodd" d="M298.445 265.863C298.527 265.863 298.609 265.834 298.673 265.774C298.678 265.77 299.234 265.276 300.038 265.306C300.869 265.337 301.421 265.743 301.426 265.748C301.575 265.859 301.786 265.83 301.898 265.682C302.01 265.533 301.982 265.323 301.835 265.21C301.806 265.188 301.117 264.671 300.062 264.632C298.977 264.593 298.248 265.249 298.217 265.277C298.08 265.403 298.07 265.616 298.197 265.754C298.263 265.826 298.354 265.863 298.445 265.863Z" fill="black"/>
<path fill-rule="evenodd" clip-rule="evenodd" d="M304.179 264.181C304.179 264.181 302.893 262.643 301.732 261.994C301.015 261.593 296.59 260.735 296.428 261.642C296.27 262.526 296.725 262.556 298.49 262.844C300.254 263.131 301.081 263.202 302.008 263.638C302.935 264.073 303.982 264.667 304.179 264.181Z" fill="black"/>
<path fill-rule="evenodd" clip-rule="evenodd" d="M287.111 265.264C287.111 265.264 286.948 264.331 287.172 263.722C287.397 263.113 290.175 260.579 290.99 260.799C292.285 261.15 291.819 261.77 290.179 262.873C288.861 263.76 288.335 264.101 287.838 264.726C287.158 265.579 287.209 265.402 287.111 265.264Z" fill="black"/>
<path fill-rule="evenodd" clip-rule="evenodd" d="M288.982 266.891C289.064 266.891 289.145 266.862 289.21 266.802C289.214 266.799 289.771 266.304 290.574 266.334C291.403 266.365 291.956 266.771 291.961 266.775C292.11 266.888 292.321 266.86 292.435 266.712C292.548 266.564 292.519 266.352 292.371 266.239C292.343 266.217 291.654 265.699 290.599 265.66C289.514 265.621 288.784 266.277 288.754 266.305C288.616 266.431 288.607 266.645 288.733 266.782C288.8 266.854 288.891 266.891 288.982 266.891Z" fill="black"/>
<path fill-rule="evenodd" clip-rule="evenodd" d="M310.748 260.974C310.748 260.974 309.735 257.036 301.692 253.268C295.067 250.164 287.517 254.955 286.729 256.192C286.149 257.105 285.604 245.505 297.867 242.805C308.265 240.516 316.71 251.749 313.223 261.761C313.223 261.761 312.773 260.636 310.748 260.974Z" fill="#878787"/>
<mask id="mask9" mask-type="alpha" maskUnits="userSpaceOnUse" x="298" y="233" width="20" height="18">
<path fill-rule="evenodd" clip-rule="evenodd" d="M317.416 233.224H298.703V250.56H317.416V233.224Z" fill="white"/>
</mask>
<g mask="url(#mask9)">
<path fill-rule="evenodd" clip-rule="evenodd" d="M299.91 236.021C297.373 239.543 298.964 245.027 303.465 248.269C307.966 251.511 313.671 251.285 316.208 247.763C318.746 244.24 317.154 238.757 312.654 235.514C308.153 232.272 302.448 232.499 299.91 236.021Z" fill="#878787"/>
</g>
<mask id="mask10" mask-type="alpha" maskUnits="userSpaceOnUse" x="301" y="252" width="11" height="33">
<path fill-rule="evenodd" clip-rule="evenodd" d="M311.273 252.48H301.466V284.413H311.273V252.48Z" fill="white"/>
</mask>
<g mask="url(#mask10)">
<path fill-rule="evenodd" clip-rule="evenodd" d="M309.228 254.618C309.228 254.618 312.345 261.929 309.868 266.601C307.39 271.273 313.133 280.145 310.624 284.413C310.624 284.413 310.783 280.895 308.518 276.411C306.253 271.927 305.229 270.068 306.644 266.606C308.06 263.145 303.867 253.949 301.466 252.48L309.228 254.618Z" fill="#878787"/>
</g>
<path fill-rule="evenodd" clip-rule="evenodd" d="M296.977 264.52C296.977 266.614 298.674 268.311 300.768 268.311C302.861 268.311 304.559 266.614 304.559 264.52C304.559 262.427 302.861 260.729 300.768 260.729C298.674 260.729 296.977 262.427 296.977 264.52Z" fill="black"/>
<path fill-rule="evenodd" clip-rule="evenodd" d="M300.767 261.123C302.64 261.123 304.164 262.647 304.164 264.52C304.164 266.394 302.64 267.917 300.767 267.917C298.894 267.917 297.37 266.394 297.37 264.52C297.37 262.647 298.894 261.123 300.767 261.123ZM300.767 268.705C303.074 268.705 304.951 266.828 304.951 264.52C304.951 262.213 303.074 260.336 300.767 260.336C298.459 260.336 296.582 262.213 296.582 264.52C296.582 266.828 298.459 268.705 300.767 268.705Z" fill="#E93737"/>
<path fill-rule="evenodd" clip-rule="evenodd" d="M286.411 265.545C286.411 267.638 288.108 269.335 290.201 269.335C292.295 269.335 293.992 267.638 293.992 265.545C293.992 263.451 292.295 261.754 290.201 261.754C288.108 261.754 286.411 263.451 286.411 265.545Z" fill="black"/>
<path fill-rule="evenodd" clip-rule="evenodd" d="M290.2 262.148C292.073 262.148 293.597 263.672 293.597 265.545C293.597 267.418 292.073 268.942 290.2 268.942C288.327 268.942 286.803 267.418 286.803 265.545C286.803 263.672 288.327 262.148 290.2 262.148ZM290.2 269.729C292.508 269.729 294.385 267.852 294.385 265.545C294.385 263.238 292.508 261.36 290.2 261.36C287.893 261.36 286.016 263.238 286.016 265.545C286.016 267.852 287.893 269.729 290.2 269.729Z" fill="#E93737"/>
<path fill-rule="evenodd" clip-rule="evenodd" d="M304.817 264.245L310.441 261.995L310.149 261.264L304.524 263.514L304.817 264.245Z" fill="#E93737"/>
<path fill-rule="evenodd" clip-rule="evenodd" d="M294.138 265.508L297.088 265.18L297.001 264.397L294.051 264.726L294.138 265.508Z" fill="#E93737"/>
</svg>
